<?xml version="1.0" encoding="UTF-8" standalone="no"?><svg xmlns="http://www.w3.org/2000/svg" xmlns:xlink="http://www.w3.org/1999/xlink" contentScriptType="application/ecmascript" contentStyleType="text/css" height="432px" preserveAspectRatio="none" style="width:814px;height:432px;background:#FFFFFF;" version="1.1" viewBox="0 0 814 432" width="814px" zoomAndPan="magnify"><defs><filter height="300%" id="f1cx5pyc033td0" width="300%" x="-1" y="-1"><feGaussianBlur result="blurOut" stdDeviation="2.0"/><feColorMatrix in="blurOut" result="blurOut2" type="matrix" values="0 0 0 0 0 0 0 0 0 0 0 0 0 0 0 0 0 0 .4 0"/><feOffset dx="4.0" dy="4.0" in="blurOut2" result="blurOut3"/><feBlend in="SourceGraphic" in2="blurOut3" mode="normal"/></filter></defs><g><!--MD5=[e44418e4687c984c754524bc3e186003]
cluster md.message--><polygon fill="#FFFFFF" filter="url(#f1cx5pyc033td0)" points="16,6,111,6,118,28.4883,797,28.4883,797,425,16,425,16,6" style="stroke:#000000;stroke-width:1.5;"/><line style="stroke:#000000;stroke-width:1.5;" x1="16" x2="118" y1="28.4883" y2="28.4883"/><text fill="#000000" font-family="sans-serif" font-size="14" font-weight="bold" lengthAdjust="spacing" textLength="89" x="20" y="21.5352">md.message</text><!--MD5=[dd1f9f64d4aa0ccd2fcf50a4ae5bf505]
class MessageInterface--><rect codeLine="11" fill="#EBEBEB" filter="url(#f1cx5pyc033td0)" height="60.9551" id="MessageInterface" style="stroke:#333333;stroke-width:1.5;" width="178" x="378" y="348"/><ellipse cx="413.7" cy="364" fill="#B4A7E5" rx="11" ry="11" style="stroke:#333333;stroke-width:1.0;"/><path d="M409.6277,359.7651 L409.6277,357.6069 L417.0071,357.6069 L417.0071,359.7651 L414.5418,359.7651 L414.5418,367.8418 L417.0071,367.8418 L417.0071,370 L409.6277,370 L409.6277,367.8418 L412.0931,367.8418 L412.0931,359.7651 Z " fill="#000000"/><text fill="#000000" font-family="sans-serif" font-size="12" font-style="italic" lengthAdjust="spacing" textLength="100" x="432.3" y="368.5352">MessageInterface</text><line style="stroke:#333333;stroke-width:1.5;" x1="379" x2="555" y1="380" y2="380"/><line style="stroke:#333333;stroke-width:1.5;" x1="379" x2="555" y1="388" y2="388"/><ellipse cx="389" cy="399" fill="#84BE84" rx="3" ry="3" style="stroke:#038048;stroke-width:1.0;"/><text fill="#000000" font-family="sans-serif" font-size="11" lengthAdjust="spacing" textLength="152" x="398" y="402.6348">get_payload() -&gt; typing.Any</text><!--MD5=[f8468286c35b1dd5b14cc3cc74d104e4]
class SendInterface--><rect codeLine="15" fill="#EBEBEB" filter="url(#f1cx5pyc033td0)" height="60.9551" id="SendInterface" style="stroke:#333333;stroke-width:1.5;" width="255" x="41.5" y="214"/><ellipse cx="125.75" cy="230" fill="#B4A7E5" rx="11" ry="11" style="stroke:#333333;stroke-width:1.0;"/><path d="M121.6777,225.7651 L121.6777,223.6069 L129.0571,223.6069 L129.0571,225.7651 L126.5918,225.7651 L126.5918,233.8418 L129.0571,233.8418 L129.0571,236 L121.6777,236 L121.6777,233.8418 L124.1431,233.8418 L124.1431,225.7651 Z " fill="#000000"/><text fill="#000000" font-family="sans-serif" font-size="12" font-style="italic" lengthAdjust="spacing" textLength="78" x="146.25" y="234.5352">SendInterface</text><line style="stroke:#333333;stroke-width:1.5;" x1="42.5" x2="295.5" y1="246" y2="246"/><line style="stroke:#333333;stroke-width:1.5;" x1="42.5" x2="295.5" y1="254" y2="254"/><ellipse cx="52.5" cy="265" fill="#84BE84" rx="3" ry="3" style="stroke:#038048;stroke-width:1.0;"/><text fill="#000000" font-family="sans-serif" font-size="11" lengthAdjust="spacing" textLength="229" x="61.5" y="268.6348">send(message: MessageInterface) -&gt; None</text><!--MD5=[4d504bc4481b6dd147d4ca2c0803c122]
class ReceiveInterface--><rect codeLine="20" fill="#EBEBEB" filter="url(#f1cx5pyc033td0)" height="86.8652" id="ReceiveInterface" style="stroke:#333333;stroke-width:1.5;" width="271" x="331.5" y="201"/><ellipse cx="415.75" cy="217" fill="#B4A7E5" rx="11" ry="11" style="stroke:#333333;stroke-width:1.0;"/><path d="M411.6777,212.7651 L411.6777,210.6069 L419.0571,210.6069 L419.0571,212.7651 L416.5918,212.7651 L416.5918,220.8418 L419.0571,220.8418 L419.0571,223 L411.6777,223 L411.6777,220.8418 L414.1431,220.8418 L414.1431,212.7651 Z " fill="#000000"/><text fill="#000000" font-family="sans-serif" font-size="12" font-style="italic" lengthAdjust="spacing" textLength="94" x="436.25" y="221.5352">ReceiveInterface</text><line style="stroke:#333333;stroke-width:1.5;" x1="332.5" x2="601.5" y1="233" y2="233"/><ellipse cx="342.5" cy="244" fill="#84BE84" rx="3" ry="3" style="stroke:#038048;stroke-width:1.0;"/><text fill="#000000" font-family="sans-serif" font-size="11" lengthAdjust="spacing" textLength="245" x="351.5" y="247.6348">receive() -&gt; typing.Iterable[MessageInterface]</text><line style="stroke:#333333;stroke-width:1.0;" x1="332.5" x2="601.5" y1="253.9551" y2="253.9551"/><ellipse cx="342.5" cy="264.9551" fill="#84BE84" rx="3" ry="3" style="stroke:#038048;stroke-width:1.0;"/><text fill="#000000" font-family="sans-serif" font-size="11" lengthAdjust="spacing" textLength="238" x="351.5" y="268.5898">accept(message: MessageInterface) -&gt; None</text><ellipse cx="342.5" cy="277.9102" fill="#84BE84" rx="3" ry="3" style="stroke:#038048;stroke-width:1.0;"/><text fill="#000000" font-family="sans-serif" font-size="11" lengthAdjust="spacing" textLength="233" x="351.5" y="281.5449">reject(message: MessageInterface) -&gt; None</text><!--MD5=[7be46afbfb344b34e40869949f34e0e1]
class HandleInterface--><rect codeLine="27" fill="#EBEBEB" filter="url(#f1cx5pyc033td0)" height="60.9551" id="HandleInterface" style="stroke:#333333;stroke-width:1.5;" width="265" x="515.5" y="60.5"/><ellipse cx="598.25" cy="76.5" fill="#B4A7E5" rx="11" ry="11" style="stroke:#333333;stroke-width:1.0;"/><path d="M594.1777,72.2651 L594.1777,70.1069 L601.5571,70.1069 L601.5571,72.2651 L599.0918,72.2651 L599.0918,80.3418 L601.5571,80.3418 L601.5571,82.5 L594.1777,82.5 L594.1777,80.3418 L596.6431,80.3418 L596.6431,72.2651 Z " fill="#000000"/><text fill="#000000" font-family="sans-serif" font-size="12" font-style="italic" lengthAdjust="spacing" textLength="91" x="618.75" y="81.0352">HandleInterface</text><line style="stroke:#333333;stroke-width:1.5;" x1="516.5" x2="779.5" y1="92.5" y2="92.5"/><line style="stroke:#333333;stroke-width:1.5;" x1="516.5" x2="779.5" y1="100.5" y2="100.5"/><ellipse cx="526.5" cy="111.5" fill="#84BE84" rx="3" ry="3" style="stroke:#038048;stroke-width:1.0;"/><text fill="#000000" font-family="sans-serif" font-size="11" lengthAdjust="spacing" textLength="239" x="535.5" y="115.1348">handle(message: MessageInterface) -&gt; None</text><!--MD5=[d48aaf17564ac6ec40f7427532eff093]
class ReceiveApplication--><rect codeLine="31" fill="#EBEBEB" filter="url(#f1cx5pyc033td0)" height="99.8203" id="ReceiveApplication" style="stroke:#333333;stroke-width:1.5;" width="448" x="32" y="41"/><ellipse cx="197.75" cy="57" fill="#ADD1B2" rx="11" ry="11" style="stroke:#333333;stroke-width:1.0;"/><path d="M200.7231,62.6431 Q200.1421,62.9419 199.5029,63.0913 Q198.8638,63.2407 198.1582,63.2407 Q195.6514,63.2407 194.3315,61.5889 Q193.0117,59.937 193.0117,56.8159 Q193.0117,53.6865 194.3315,52.0347 Q195.6514,50.3828 198.1582,50.3828 Q198.8638,50.3828 199.5112,50.5322 Q200.1587,50.6816 200.7231,50.9805 L200.7231,53.7031 Q200.0923,53.1221 199.4988,52.8523 Q198.9053,52.5825 198.2744,52.5825 Q196.9297,52.5825 196.2449,53.6492 Q195.5601,54.7158 195.5601,56.8159 Q195.5601,58.9077 196.2449,59.9744 Q196.9297,61.041 198.2744,61.041 Q198.9053,61.041 199.4988,60.7712 Q200.0923,60.5015 200.7231,59.9204 Z " fill="#000000"/><text fill="#000000" font-family="sans-serif" font-size="12" lengthAdjust="spacing" textLength="108" x="218.25" y="61.5352">ReceiveApplication</text><line style="stroke:#333333;stroke-width:1.5;" x1="33" x2="479" y1="73" y2="73"/><rect fill="none" height="6" style="stroke:#C82930;stroke-width:1.0;" width="6" x="40" y="81"/><text fill="#000000" font-family="sans-serif" font-size="11" lengthAdjust="spacing" textLength="184" x="52" y="87.6348">receive_message: ReceiveInterface</text><rect fill="none" height="6" style="stroke:#C82930;stroke-width:1.0;" width="6" x="40" y="93.9551"/><text fill="#000000" font-family="sans-serif" font-size="11" lengthAdjust="spacing" textLength="179" x="52" y="100.5898">handle_message: HandleInterface</text><rect fill="none" height="6" style="stroke:#C82930;stroke-width:1.0;" width="6" x="40" y="106.9102"/><text fill="#000000" font-family="sans-serif" font-size="11" lengthAdjust="spacing" textLength="422" x="52" y="113.5449">retry_exception: Union[Exception, type, Tuple[Union[Exception, type]]] = None</text><line style="stroke:#333333;stroke-width:1.0;" x1="33" x2="479" y1="119.8652" y2="119.8652"/><ellipse cx="43" cy="130.8652" fill="#84BE84" rx="3" ry="3" style="stroke:#038048;stroke-width:1.0;"/><text fill="#000000" font-family="sans-serif" font-size="11" lengthAdjust="spacing" textLength="76" x="52" y="134.5">run() -&gt; None</text><!--MD5=[caf5bdddd0fb1ee3a50d64ea6c30535d]
link SendInterface to MessageInterface--><path codeLine="41" d="M169,275.02 C169,314.7 169,379 169,379 C169,379 290.18,379 377.99,379 " fill="none" id="SendInterface-MessageInterface" style="stroke:#333333;stroke-width:1.0;"/><polygon fill="#000000" points="178.9865,372.8825,172.1975,366.2222,169.5793,371.4846,178.9865,372.8825" style="stroke:#000000;stroke-width:1.0;"/><text fill="#000000" font-family="sans-serif" font-size="13" lengthAdjust="spacing" textLength="37" x="183.51" y="375.5684">Sends</text><!--MD5=[8d1ec2c253dbce3519d264e1aeee2a6c]
link HandleInterface to MessageInterface--><path codeLine="42" d="M691.5,121.55 C691.5,195.67 691.5,379 691.5,379 C691.5,379 618.73,379 556.05,379 " fill="none" id="HandleInterface-MessageInterface" style="stroke:#333333;stroke-width:1.0;"/><polygon fill="#000000" points="628.1719,314.0802,634.9844,307.4438,629.7825,304.707,628.1719,314.0802" style="stroke:#000000;stroke-width:1.0;"/><text fill="#000000" font-family="sans-serif" font-size="13" lengthAdjust="spacing" textLength="51" x="639.5" y="314.5684">Handles</text><!--MD5=[26e4c9f53f96b8d60244026918f3e2e8]
link ReceiveInterface to MessageInterface--><path codeLine="43" d="M467,288.01 C467,307.57 467,330.19 467,347.93 " fill="none" id="ReceiveInterface-MessageInterface" style="stroke:#333333;stroke-width:1.0;"/><polygon fill="#000000" points="403,314.6253,405.9389,305.5802,400.0611,305.5802,403,314.6253" style="stroke:#000000;stroke-width:1.0;"/><text fill="#000000" font-family="sans-serif" font-size="13" lengthAdjust="spacing" textLength="54" x="412" y="314.5384">Receives</text><!--MD5=[bf706d96003145ad88542f1673d8eb8f]
link ReceiveApplication to ReceiveInterface--><path codeLine="45" d="M405.75,153.26 C405.75,153.26 405.75,187.83 405.75,187.83 " fill="none" id="ReceiveApplication-ReceiveInterface" style="stroke:#333333;stroke-width:1.0;"/><polygon fill="#333333" points="405.75,200.83,409.75,191.83,405.75,195.83,401.75,191.83,405.75,200.83" style="stroke:#333333;stroke-width:1.0;"/><line style="stroke:#333333;stroke-width:1.0;" x1="405.75" x2="405.75" y1="195.83" y2="187.83"/><polygon fill="#333333" points="405.75,141.26,401.75,147.26,405.75,153.26,409.75,147.26,405.75,141.26" style="stroke:#333333;stroke-width:1.0;"/><!--MD5=[d2f3ad44288db5aad64de58a8fb12db1]
link ReceiveApplication to HandleInterface--><path codeLine="46" d="M492.05,91 C492.05,91 502.45,91 502.45,91 " fill="none" id="ReceiveApplication-HandleInterface" style="stroke:#333333;stroke-width:1.0;"/><polygon fill="#333333" points="515.45,91,506.45,87,510.45,91,506.45,95,515.45,91" style="stroke:#333333;stroke-width:1.0;"/><line style="stroke:#333333;stroke-width:1.0;" x1="510.45" x2="502.45" y1="91" y2="91"/><polygon fill="#333333" points="480.05,91,486.05,95,492.05,91,486.05,87,480.05,91" style="stroke:#333333;stroke-width:1.0;"/><!--MD5=[a5fb4244ca8b551c4ebde9a6cea613fe]
@startuml

skinparam class {
  BackgroundColor #ebebeb
  ArrowColor      #333
  BorderColor     #333
}

skinparam lineType ortho

package md.message {
  interface MessageInterface {
    + get_payload() -> typing.Any
  }

  interface SendInterface {
    + send(message: MessageInterface) -> None
  }


  interface ReceiveInterface{
    + receive() -> typing.Iterable[MessageInterface]
    - -
    + accept(message: MessageInterface) -> None
    + reject(message: MessageInterface) -> None
  }

  interface HandleInterface {
    + handle(message: MessageInterface) -> None
  }

  class ReceiveApplication {
    - receive_message: ReceiveInterface
    - handle_message: HandleInterface
    - retry_exception: Union[Exception, type, Tuple[Union[Exception, type]]] = None
    - - -
    + run() -> None
  }
}


SendInterface - - MessageInterface : "Sends >"
HandleInterface - - - MessageInterface : "Handles >"
ReceiveInterface - - MessageInterface : "Receives >"

ReceiveApplication *-> ReceiveInterface
ReceiveApplication *-> HandleInterface

@enduml

PlantUML version 1.2022.0(Tue Jan 11 19:16:42 MSK 2022)
(GPL source distribution)
Java Runtime: OpenJDK Runtime Environment
JVM: OpenJDK 64-Bit Server VM
Default Encoding: UTF-8
Language: ru
Country: RU
--></g></svg>