<?xml version="1.0" encoding="UTF-8" standalone="no"?><svg xmlns="http://www.w3.org/2000/svg" xmlns:xlink="http://www.w3.org/1999/xlink" contentScriptType="application/ecmascript" contentStyleType="text/css" height="432px" preserveAspectRatio="none" style="width:770px;height:432px;background:#FFFFFF;" version="1.1" viewBox="0 0 770 432" width="770px" zoomAndPan="magnify"><defs><filter height="300%" id="f1l0mi27qftgol" width="300%" x="-1" y="-1"><feGaussianBlur result="blurOut" stdDeviation="2.0"/><feColorMatrix in="blurOut" result="blurOut2" type="matrix" values="0 0 0 0 0 0 0 0 0 0 0 0 0 0 0 0 0 0 .4 0"/><feOffset dx="4.0" dy="4.0" in="blurOut2" result="blurOut3"/><feBlend in="SourceGraphic" in2="blurOut3" mode="normal"/></filter></defs><g><!--MD5=[e44418e4687c984c754524bc3e186003]
cluster md.message--><polygon fill="#FFFFFF" filter="url(#f1l0mi27qftgol)" points="16,6,111,6,118,28.4883,753,28.4883,753,425,16,425,16,6" style="stroke:#000000;stroke-width:1.5;"/><line style="stroke:#000000;stroke-width:1.5;" x1="16" x2="118" y1="28.4883" y2="28.4883"/><text fill="#000000" font-family="sans-serif" font-size="14" font-weight="bold" lengthAdjust="spacing" textLength="89" x="20" y="21.5352">md.message</text><!--MD5=[dd1f9f64d4aa0ccd2fcf50a4ae5bf505]
class MessageInterface--><rect codeLine="11" fill="#EBEBEB" filter="url(#f1l0mi27qftgol)" height="60.9551" id="MessageInterface" style="stroke:#333333;stroke-width:1.5;" width="178" x="369" y="348"/><ellipse cx="404.7" cy="364" fill="#B4A7E5" rx="11" ry="11" style="stroke:#333333;stroke-width:1.0;"/><path d="M400.6277,359.7651 L400.6277,357.6069 L408.0071,357.6069 L408.0071,359.7651 L405.5418,359.7651 L405.5418,367.8418 L408.0071,367.8418 L408.0071,370 L400.6277,370 L400.6277,367.8418 L403.0931,367.8418 L403.0931,359.7651 Z " fill="#000000"/><text fill="#000000" font-family="sans-serif" font-size="12" font-style="italic" lengthAdjust="spacing" textLength="100" x="423.3" y="368.5352">MessageInterface</text><line style="stroke:#333333;stroke-width:1.5;" x1="370" x2="546" y1="380" y2="380"/><line style="stroke:#333333;stroke-width:1.5;" x1="370" x2="546" y1="388" y2="388"/><ellipse cx="380" cy="399" fill="#84BE84" rx="3" ry="3" style="stroke:#038048;stroke-width:1.0;"/><text fill="#000000" font-family="sans-serif" font-size="11" lengthAdjust="spacing" textLength="152" x="389" y="402.6348">get_payload() -&gt; typing.Any</text><!--MD5=[f8468286c35b1dd5b14cc3cc74d104e4]
class SendInterface--><rect codeLine="15" fill="#EBEBEB" filter="url(#f1l0mi27qftgol)" height="60.9551" id="SendInterface" style="stroke:#333333;stroke-width:1.5;" width="255" x="32.5" y="214"/><ellipse cx="116.75" cy="230" fill="#B4A7E5" rx="11" ry="11" style="stroke:#333333;stroke-width:1.0;"/><path d="M112.6777,225.7651 L112.6777,223.6069 L120.0571,223.6069 L120.0571,225.7651 L117.5918,225.7651 L117.5918,233.8418 L120.0571,233.8418 L120.0571,236 L112.6777,236 L112.6777,233.8418 L115.1431,233.8418 L115.1431,225.7651 Z " fill="#000000"/><text fill="#000000" font-family="sans-serif" font-size="12" font-style="italic" lengthAdjust="spacing" textLength="78" x="137.25" y="234.5352">SendInterface</text><line style="stroke:#333333;stroke-width:1.5;" x1="33.5" x2="286.5" y1="246" y2="246"/><line style="stroke:#333333;stroke-width:1.5;" x1="33.5" x2="286.5" y1="254" y2="254"/><ellipse cx="43.5" cy="265" fill="#84BE84" rx="3" ry="3" style="stroke:#038048;stroke-width:1.0;"/><text fill="#000000" font-family="sans-serif" font-size="11" lengthAdjust="spacing" textLength="229" x="52.5" y="268.6348">send(message: MessageInterface) -&gt; None</text><!--MD5=[4d504bc4481b6dd147d4ca2c0803c122]
class ReceiveInterface--><rect codeLine="20" fill="#EBEBEB" filter="url(#f1l0mi27qftgol)" height="86.8652" id="ReceiveInterface" style="stroke:#333333;stroke-width:1.5;" width="271" x="322.5" y="201"/><ellipse cx="406.75" cy="217" fill="#B4A7E5" rx="11" ry="11" style="stroke:#333333;stroke-width:1.0;"/><path d="M402.6777,212.7651 L402.6777,210.6069 L410.0571,210.6069 L410.0571,212.7651 L407.5918,212.7651 L407.5918,220.8418 L410.0571,220.8418 L410.0571,223 L402.6777,223 L402.6777,220.8418 L405.1431,220.8418 L405.1431,212.7651 Z " fill="#000000"/><text fill="#000000" font-family="sans-serif" font-size="12" font-style="italic" lengthAdjust="spacing" textLength="94" x="427.25" y="221.5352">ReceiveInterface</text><line style="stroke:#333333;stroke-width:1.5;" x1="323.5" x2="592.5" y1="233" y2="233"/><ellipse cx="333.5" cy="244" fill="#84BE84" rx="3" ry="3" style="stroke:#038048;stroke-width:1.0;"/><text fill="#000000" font-family="sans-serif" font-size="11" lengthAdjust="spacing" textLength="245" x="342.5" y="247.6348">receive() -&gt; typing.Iterable[MessageInterface]</text><line style="stroke:#333333;stroke-width:1.0;" x1="323.5" x2="592.5" y1="253.9551" y2="253.9551"/><ellipse cx="333.5" cy="264.9551" fill="#84BE84" rx="3" ry="3" style="stroke:#038048;stroke-width:1.0;"/><text fill="#000000" font-family="sans-serif" font-size="11" lengthAdjust="spacing" textLength="238" x="342.5" y="268.5898">accept(message: MessageInterface) -&gt; None</text><ellipse cx="333.5" cy="277.9102" fill="#84BE84" rx="3" ry="3" style="stroke:#038048;stroke-width:1.0;"/><text fill="#000000" font-family="sans-serif" font-size="11" lengthAdjust="spacing" textLength="233" x="342.5" y="281.5449">reject(message: MessageInterface) -&gt; None</text><!--MD5=[7be46afbfb344b34e40869949f34e0e1]
class HandleInterface--><rect codeLine="27" fill="#EBEBEB" filter="url(#f1l0mi27qftgol)" height="60.9551" id="HandleInterface" style="stroke:#333333;stroke-width:1.5;" width="265" x="471.5" y="60.5"/><ellipse cx="554.25" cy="76.5" fill="#B4A7E5" rx="11" ry="11" style="stroke:#333333;stroke-width:1.0;"/><path d="M550.1777,72.2651 L550.1777,70.1069 L557.5571,70.1069 L557.5571,72.2651 L555.0918,72.2651 L555.0918,80.3418 L557.5571,80.3418 L557.5571,82.5 L550.1777,82.5 L550.1777,80.3418 L552.6431,80.3418 L552.6431,72.2651 Z " fill="#000000"/><text fill="#000000" font-family="sans-serif" font-size="12" font-style="italic" lengthAdjust="spacing" textLength="91" x="574.75" y="81.0352">HandleInterface</text><line style="stroke:#333333;stroke-width:1.5;" x1="472.5" x2="735.5" y1="92.5" y2="92.5"/><line style="stroke:#333333;stroke-width:1.5;" x1="472.5" x2="735.5" y1="100.5" y2="100.5"/><ellipse cx="482.5" cy="111.5" fill="#84BE84" rx="3" ry="3" style="stroke:#038048;stroke-width:1.0;"/><text fill="#000000" font-family="sans-serif" font-size="11" lengthAdjust="spacing" textLength="239" x="491.5" y="115.1348">handle(message: MessageInterface) -&gt; None</text><!--MD5=[d48aaf17564ac6ec40f7427532eff093]
class ReceiveApplication--><rect codeLine="31" fill="#EBEBEB" filter="url(#f1l0mi27qftgol)" height="99.8203" id="ReceiveApplication" style="stroke:#333333;stroke-width:1.5;" width="404" x="32" y="41"/><ellipse cx="175.75" cy="57" fill="#ADD1B2" rx="11" ry="11" style="stroke:#333333;stroke-width:1.0;"/><path d="M178.7231,62.6431 Q178.1421,62.9419 177.5029,63.0913 Q176.8638,63.2407 176.1582,63.2407 Q173.6514,63.2407 172.3315,61.5889 Q171.0117,59.937 171.0117,56.8159 Q171.0117,53.6865 172.3315,52.0347 Q173.6514,50.3828 176.1582,50.3828 Q176.8638,50.3828 177.5112,50.5322 Q178.1587,50.6816 178.7231,50.9805 L178.7231,53.7031 Q178.0923,53.1221 177.4988,52.8523 Q176.9053,52.5825 176.2744,52.5825 Q174.9297,52.5825 174.2449,53.6492 Q173.5601,54.7158 173.5601,56.8159 Q173.5601,58.9077 174.2449,59.9744 Q174.9297,61.041 176.2744,61.041 Q176.9053,61.041 177.4988,60.7712 Q178.0923,60.5015 178.7231,59.9204 Z " fill="#000000"/><text fill="#000000" font-family="sans-serif" font-size="12" lengthAdjust="spacing" textLength="108" x="196.25" y="61.5352">ReceiveApplication</text><line style="stroke:#333333;stroke-width:1.5;" x1="33" x2="435" y1="73" y2="73"/><rect fill="none" height="6" style="stroke:#C82930;stroke-width:1.0;" width="6" x="40" y="81"/><text fill="#000000" font-family="sans-serif" font-size="11" lengthAdjust="spacing" textLength="184" x="52" y="87.6348">receive_message: ReceiveInterface</text><rect fill="none" height="6" style="stroke:#C82930;stroke-width:1.0;" width="6" x="40" y="93.9551"/><text fill="#000000" font-family="sans-serif" font-size="11" lengthAdjust="spacing" textLength="179" x="52" y="100.5898">handle_message: HandleInterface</text><rect fill="none" height="6" style="stroke:#C82930;stroke-width:1.0;" width="6" x="40" y="106.9102"/><text fill="#000000" font-family="sans-serif" font-size="11" lengthAdjust="spacing" textLength="378" x="52" y="113.5449">retry_message_exception: typing.Tuple[typing.Union[Exception, type]]</text><line style="stroke:#333333;stroke-width:1.0;" x1="33" x2="435" y1="119.8652" y2="119.8652"/><ellipse cx="43" cy="130.8652" fill="#84BE84" rx="3" ry="3" style="stroke:#038048;stroke-width:1.0;"/><text fill="#000000" font-family="sans-serif" font-size="11" lengthAdjust="spacing" textLength="76" x="52" y="134.5">run() -&gt; None</text><!--MD5=[caf5bdddd0fb1ee3a50d64ea6c30535d]
link SendInterface to MessageInterface--><path codeLine="41" d="M160,275.02 C160,314.7 160,379 160,379 C160,379 281.18,379 368.99,379 " fill="none" id="SendInterface-MessageInterface" style="stroke:#333333;stroke-width:1.0;"/><polygon fill="#000000" points="169.9865,372.8825,163.1975,366.2222,160.5793,371.4846,169.9865,372.8825" style="stroke:#000000;stroke-width:1.0;"/><text fill="#000000" font-family="sans-serif" font-size="13" lengthAdjust="spacing" textLength="37" x="174.51" y="375.5684">Sends</text><!--MD5=[8d1ec2c253dbce3519d264e1aeee2a6c]
link HandleInterface to MessageInterface--><path codeLine="42" d="M665,121.55 C665,195.67 665,379 665,379 C665,379 603.31,379 547.29,379 " fill="none" id="HandleInterface-MessageInterface" style="stroke:#333333;stroke-width:1.0;"/><polygon fill="#000000" points="601.9209,305.3325,608.3548,298.3285,603.0092,295.8844,601.9209,305.3325" style="stroke:#000000;stroke-width:1.0;"/><text fill="#000000" font-family="sans-serif" font-size="13" lengthAdjust="spacing" textLength="51" x="613" y="305.6984">Handles</text><!--MD5=[26e4c9f53f96b8d60244026918f3e2e8]
link ReceiveInterface to MessageInterface--><path codeLine="43" d="M458,288.01 C458,307.57 458,330.19 458,347.93 " fill="none" id="ReceiveInterface-MessageInterface" style="stroke:#333333;stroke-width:1.0;"/><polygon fill="#000000" points="394,314.6253,396.9389,305.5802,391.0611,305.5802,394,314.6253" style="stroke:#000000;stroke-width:1.0;"/><text fill="#000000" font-family="sans-serif" font-size="13" lengthAdjust="spacing" textLength="54" x="403" y="314.5384">Receives</text><!--MD5=[bf706d96003145ad88542f1673d8eb8f]
link ReceiveApplication to ReceiveInterface--><path codeLine="45" d="M379.25,153.26 C379.25,153.26 379.25,187.83 379.25,187.83 " fill="none" id="ReceiveApplication-ReceiveInterface" style="stroke:#333333;stroke-width:1.0;"/><polygon fill="#333333" points="379.25,200.83,383.25,191.83,379.25,195.83,375.25,191.83,379.25,200.83" style="stroke:#333333;stroke-width:1.0;"/><line style="stroke:#333333;stroke-width:1.0;" x1="379.25" x2="379.25" y1="195.83" y2="187.83"/><polygon fill="#333333" points="379.25,141.26,375.25,147.26,379.25,153.26,383.25,147.26,379.25,141.26" style="stroke:#333333;stroke-width:1.0;"/><!--MD5=[d2f3ad44288db5aad64de58a8fb12db1]
link ReceiveApplication to HandleInterface--><path codeLine="46" d="M448.05,91 C448.05,91 458.05,91 458.05,91 " fill="none" id="ReceiveApplication-HandleInterface" style="stroke:#333333;stroke-width:1.0;"/><polygon fill="#333333" points="471.05,91,462.05,87,466.05,91,462.05,95,471.05,91" style="stroke:#333333;stroke-width:1.0;"/><line style="stroke:#333333;stroke-width:1.0;" x1="466.05" x2="458.05" y1="91" y2="91"/><polygon fill="#333333" points="436.05,91,442.05,95,448.05,91,442.05,87,436.05,91" style="stroke:#333333;stroke-width:1.0;"/><!--MD5=[c136b45f5e4d5b0ae9351c969ac34a2f]
@startuml

skinparam class {
  BackgroundColor #ebebeb
  ArrowColor      #333
  BorderColor     #333
}

skinparam lineType ortho

package md.message {
  interface MessageInterface {
    + get_payload() -> typing.Any
  }

  interface SendInterface {
    + send(message: MessageInterface) -> None
  }


  interface ReceiveInterface{
    + receive() -> typing.Iterable[MessageInterface]
    - -
    + accept(message: MessageInterface) -> None
    + reject(message: MessageInterface) -> None
  }

  interface HandleInterface {
    + handle(message: MessageInterface) -> None
  }

  class ReceiveApplication {
    - receive_message: ReceiveInterface
    - handle_message: HandleInterface
    - retry_message_exception: typing.Tuple[typing.Union[Exception, type]]
    - - -
    + run() -> None
  }
}


SendInterface - - MessageInterface : "Sends >"
HandleInterface - - - MessageInterface : "Handles >"
ReceiveInterface - - MessageInterface : "Receives >"

ReceiveApplication *-> ReceiveInterface
ReceiveApplication *-> HandleInterface

@enduml

PlantUML version 1.2022.0(Tue Jan 11 19:16:42 MSK 2022)
(GPL source distribution)
Java Runtime: OpenJDK Runtime Environment
JVM: OpenJDK 64-Bit Server VM
Default Encoding: UTF-8
Language: ru
Country: RU
--></g></svg>